<mxfile host="app.diagrams.net" modified="2020-04-08T12:24:29.060Z" agent="5.0 (Macintosh; Intel Mac OS X 10_14_6) AppleWebKit/537.36 (KHTML, like Gecko) Chrome/80.0.3987.163 Safari/537.36" etag="LgV_aWnq6jwpSVTkCE9E" version="12.9.9" type="github">
  <diagram id="S_TCGr-MFpylQ1oplFcs" name="第 1 页">
    <mxGraphModel dx="786" dy="491" grid="1" gridSize="10" guides="1" tooltips="1" connect="1" arrows="1" fold="1" page="1" pageScale="1" pageWidth="827" pageHeight="1169" math="0" shadow="0">
      <root>
        <mxCell id="0" />
        <mxCell id="1" parent="0" />
      </root>
    </mxGraphModel>
  </diagram>
</mxfile>
